<svg xmlns="http://www.w3.org/2000/svg" viewBox="0 0 205.21 53.59"><title>Asset 1</title><g id="Layer_2" data-name="Layer 2"><g id="Layer_1-2" data-name="Layer 1"><path d="M22.41,32.88V9.32a3,3,0,0,0-.54-1.62,4,4,0,0,0-2.16-1.39L17.33,5.16a2.09,2.09,0,0,1-.77-1.85,3,3,0,0,1,1-2.42C18.29.3,19.74,0,22,0H36c2.2,0,3.63.27,4.27.81a3.09,3.09,0,0,1,1,2.5,2.12,2.12,0,0,1-.77,1.81,9.42,9.42,0,0,1-2.31,1.16,4.21,4.21,0,0,0-2,1.3,4.18,4.18,0,0,0-.65,1.74V36a20.37,20.37,0,0,1-3.89,12.28q-3.88,5.35-13.67,5.35-8,0-13-4.66A14.33,14.33,0,0,1,0,38.19,11.58,11.58,0,0,1,3.12,29.8a9.56,9.56,0,0,1,7-3.24,7.21,7.21,0,0,1,5.66,2.2,7.33,7.33,0,0,1,2,5,5.79,5.79,0,0,1-1,3.54,3.08,3.08,0,0,1-2.65,1.31q-3.16,0-3.16,3a4.61,4.61,0,0,0,1.16,3,4.45,4.45,0,0,0,3.62,1.39,5.46,5.46,0,0,0,4.92-2.7Q22.41,40.42,22.41,32.88Z"/><path d="M78.6,51.61,71.19,52a9.11,9.11,0,0,1-7.62-3.27l0-.06a15.29,15.29,0,0,1-5.58,2.85,26.8,26.8,0,0,1-8.27,1.23,13.26,13.26,0,0,1-8.78-2.81,9.24,9.24,0,0,1-3.39-7.5q0-7.63,5.93-9.94a39.24,39.24,0,0,1,14.24-2.31,14,14,0,0,0-2-4.85,4.85,4.85,0,0,0-4.27-1.92,9.58,9.58,0,0,0-4.47,1.08l-4.31,2.38a4.41,4.41,0,0,1-1.73-.23c-.34-.15-.5-.79-.5-1.92s1.42-2.84,4.27-4.82a17.38,17.38,0,0,1,10.13-3q8.53,0,11.47,5.25a64.45,64.45,0,0,1,5.39,14.67q2.46,9.42,5.54,9.42H78l.92-.47c.83,0,1.24.54,1.24,1.62a6.23,6.23,0,0,1-1.56,4.18M49.2,40.77a4.76,4.76,0,0,0,2.12,3.92,7.69,7.69,0,0,0,4.74,1.59,6.33,6.33,0,0,0,5.31-2.87l-1.08-3.34q-.23-.93-.54-2a19.24,19.24,0,0,0-1-2.64,17.42,17.42,0,0,0-6.93,1.16A4.22,4.22,0,0,0,49.2,40.77Z"/><path d="M118.39,46.7l.5,4.89H100.4c-1.54,0-2.31-.62-2.31-1.85s.8-2.2,2.42-2.92,2.38-1.52,2.27-2.39a58.22,58.22,0,0,0-3.27-13.55q-2.12-5.23-4.89-5.24c-1.69,0-2.84.53-3.43,1.58a8.57,8.57,0,0,0-.88,4.2V43.58c0,1.8.61,3,1.85,3.54A2.6,2.6,0,0,1,94,49.74a1.48,1.48,0,0,1-.73,1.16,3.9,3.9,0,0,1-1.81.69H77.76c-1.49,0-2.24-.62-2.24-1.85s.72-2.1,2.16-2.92a3.82,3.82,0,0,0,2.16-3.47V30.88a2.86,2.86,0,0,0-2.16-3q-2.16-.66-2.16-2.28,0-1.3,5.78-4.85t7.16-3.54a2,2,0,0,1,1.19.42,1.94,1.94,0,0,1,.66,1.51v4a20.24,20.24,0,0,1,3.81-4.39,7.11,7.11,0,0,1,4.66-1.54q4.84,0,7.54,4.7a57.36,57.36,0,0,1,5,13.28c1.54,5.73,2.46,8.89,2.77,9.51a6.63,6.63,0,0,0,2.39,2.16"/><path d="M118.39,46.7a3.38,3.38,0,0,0,2.19-3v-15c0-.92-.73-1.63-2.19-2.11s-2.2-1.32-2.2-2.51c0-.82,2-2.16,6-4s6.43-2.81,7.36-2.81h1c.36.1.55.62.55,1.54V43.66c0,1.23.75,2.23,2.27,3s2.27,1.75,2.27,2.93a1.84,1.84,0,0,1-.77,1.35,4.14,4.14,0,0,1-2.62.65H118.89M127.23,3a4.25,4.25,0,0,1,2.91.85,4.12,4.12,0,0,1,.92,3.08c0,1.39-.94,2.77-2.8,4.16a10.11,10.11,0,0,1-6.16,2.08,4.43,4.43,0,0,1-3.06-.85,4.18,4.18,0,0,1-.84-2.77c0-1.64,1-3.15,3.13-4.51A11,11,0,0,1,127.23,3Z"/><path d="M153.46,16.94a32.54,32.54,0,0,1,9,1.39q4.81,1.38,4.81,3.85c0,1-.67,2.9-2,5.62S162.93,32,161.86,32q-1.16,0-3.35-5.35T152,21.33a6.4,6.4,0,0,0-5.39,3.08q-2.16,3.07-2.16,8.78,0,6.31,2.89,10a10.5,10.5,0,0,0,14.36,1.54L167.61,40c.56,0,.75.37,1,.75a4.84,4.84,0,0,1,.5,1.81,25.68,25.68,0,0,1-5,6.74c-2.28,2.28-6.46,3.42-12.51,3.42q-8.4,0-14-4.73A15.61,15.61,0,0,1,132,35.5q0-6.78,5.35-12.67T153.46,16.94Z"/><path d="M185.92,17.17a17.3,17.3,0,0,1,10.75,3.44,13.47,13.47,0,0,1,5.46,8v.76l-1.17.76L181,40c.21,1.18,1.31,2.47,3.31,3.85a13,13,0,0,0,6.93,1.93A11.54,11.54,0,0,0,198.81,43q3.31-2.78,4.63-2.78,1.77,0,1.77,2,0,2.31-5.24,6.31t-14.24,4q-9,0-13.86-4.87A17.06,17.06,0,0,1,167,35.07q0-8,5.11-12.94T185.92,17.17Zm-8.43,11.76v2a11.32,11.32,0,0,0,.14,1.84,9.4,9.4,0,0,0,1,2.53l11.93-5.77a7,7,0,0,0-2.14-4.59,6.4,6.4,0,0,0-4.83-2.37l-2.07.23a3.69,3.69,0,0,0-2.41,1.73,9.75,9.75,0,0,0-1.31,2.34A7.2,7.2,0,0,0,177.49,28.93Z"/></g></g></svg>